<svg xmlns="http://www.w3.org/2000/svg" version="1.1" xmlns:xlink="http://www.w3.org/1999/xlink" xmlns:svgjs="http://svgjs.com/svgjs" width="100%" height="100%" viewBox="0 0 1000 600"><rect width="1000" height="600" x="0" y="0" fill="#f4a950"/><g><circle r="166.66666666666666" cx="349.7247873942057" cy="371.9469758575525" fill="#161b21" transform="matrix(0.6828434397842477,0,0,0.6828434397842477,0,46.01844855544313)"/><path d="M296.9938012324243 446.9469935185771L296.04271428904786 446.9469935185771L296.04271428904786 370.9959076118032Q296.04271428904786 343.19699495254383 305.20032285812937 326.3763430111152L305.20032285812937 326.3763430111152Q321.2601052448569 296.94699559178207 349.73836572081365 296.94699559178207L349.73836572081365 296.94699559178207Q378.298147934774 296.94699559178207 394.24923467082994 326.3763430111152L394.24923467082994 326.3763430111152Q403.4068432399115 343.2785166905476 403.4068432399115 370.9959076118032L403.4068432399115 370.9959076118032Q403.4068432399115 398.30568984304034 394.24923467082994 415.58829829982324L394.24923467082994 415.58829829982324Q381.3416261535786 439.8546023122558 360.6079307879727 446.9469935185771L360.6079307879727 446.9469935185771L359.65684384459627 446.9469935185771L352.5101048129392 432.70786328059876Q369.4938002303752 424.664385130901 377.8090175067519 408.1426462288192L377.8090175067519 408.1426462288192Q383.1622783023277 397.5448202883392 384.1133652457042 379.1209074995046L384.1133652457042 379.1209074995046L315.1459748945799 379.1209074995046L315.1459748945799 438.33286320285356L296.9938012324243 446.9469935185771ZM315.33619228325523 362.8709077241018L315.33619228325523 362.8709077241018L384.1133652457042 362.8709077241018Q383.1622783023277 344.5285166732708 377.8090175067519 333.8219950821192L377.8090175067519 333.8219950821192Q367.51010460561866 313.19699536718485 349.73836572081365 313.19699536718485L349.73836572081365 313.19699536718485Q332.04814857401226 313.19699536718485 321.64054002220746 333.8219950821192L321.64054002220746 333.8219950821192Q316.2872792266316 344.5285166732708 315.33619228325523 362.8709077241018Z " fill="#f4a950" transform="matrix(0.6828434397842477,0,0,0.6828434397842477,0,46.01844855544313)"/><path d="M600.6639554191796 446.94699351338477L599.724778342848 446.94699351338477L599.724778342848 371.94699556062835Q599.724778342848 344.4961913009969 608.7677119063826 327.886173865306L608.7677119063826 327.886173865306Q624.6263876810084 298.82535176053483 652.748032709448 298.82535176053483L652.748032709448 298.82535176053483Q680.9501786301446 298.82535176053483 696.7015198817611 327.886173865306L696.7015198817611 327.886173865306Q705.7444534452956 344.57669219325385 705.7444534452956 371.94699556062835L705.7444534452956 371.94699556062835Q705.7444534452956 398.9147944667179 696.7015198817611 415.9809836251984L696.7015198817611 415.9809836251984Q683.9555452744054 439.9434158870272 663.4814850103791 446.94699351338477L663.4814850103791 446.94699351338477L662.5423079340477 446.94699351338477L655.4850630461855 432.88617099916496Q672.2560822663903 424.9434162964759 680.4671732766027 408.62856879906053L680.4671732766027 408.62856879906053Q685.7533985348113 398.1634528056527 686.6925756111427 379.9702511555744L686.6925756111427 379.9702511555744L618.5888207617346 379.9702511555744L618.5888207617346 438.44073256489685L600.6639554191796 446.94699351338477ZM618.7766561770009 363.92373996568233L618.7766561770009 363.92373996568233L686.6925756111427 363.92373996568233Q685.7533985348113 345.811039207861 680.4671732766027 335.23858869144385L680.4671732766027 335.23858869144385Q670.2972272214704 314.87186295042693 652.748032709448 314.87186295042693L652.748032709448 314.87186295042693Q635.2793390896826 314.87186295042693 625.0020585115409 335.23858869144385L625.0020585115409 335.23858869144385Q619.7158332533323 345.811039207861 618.7766561770009 363.92373996568233ZM726.5136836475973 423.54806749735485L726.5136836475973 423.54806749735485Q726.5136836475973 423.54806749735485 741.4063487151393 416.5713235017496L741.4063487151393 416.5713235017496L742.3455257914708 416.5713235017496Q748.5709281260108 429.0221281708298 759.3312140576943 429.0221281708298L759.3312140576943 429.0221281708298Q769.7158291588453 429.0221281708298 775.3777252475865 422.23321959049076L775.3777252475865 422.23321959049076Q779.9931097369868 416.65182439400655 779.9931097369868 410.0507512289339L779.9931097369868 410.0507512289339Q779.9931097369868 403.1545081255857 775.0825553093108 399.10262988198417L775.0825553093108 399.10262988198417Q770.0109990971208 394.97025074612566 760.3777256570352 393.440733793243L760.3777256570352 393.440733793243Q748.1147564032212 391.45504511757076 740.8428424693404 386.2761543823715L740.8428424693404 386.2761543823715Q730.6728964142081 379.0042404484906 730.6728964142081 365.3459223955557L730.6728964142081 365.3459223955557Q730.6728964142081 352.22427695766737 742.6406957297464 343.6375151169224L742.6406957297464 343.6375151169224Q751.3079584627483 337.4926136746393 762.175578917441 337.4926136746393L762.175578917441 337.4926136746393Q780.744451398052 337.4926136746393 789.1433778235306 355.4174790171944L789.1433778235306 355.4174790171944L774.2507127559886 362.421056643552L773.3115356796571 362.421056643552Q769.044988390037 353.53912486453146 762.175578917441 353.53912486453146L762.175578917441 353.53912486453146Q756.594183720957 353.53912486453146 753.0253108308973 356.3834897242782L753.0253108308973 356.3834897242782Q748.6782626490201 359.7645271990715 748.6782626490201 365.7215932260883L748.6782626490201 365.7215932260883Q748.6782626490201 371.46399020708645 753.4009816614299 374.01318512855755L753.4009816614299 374.01318512855755Q758.2042015660966 376.64288094228573 768.1058113137055 378.62856961795796L768.1058113137055 378.62856961795796Q780.3687805675195 381.0972636471721 788.0163653319329 387.0274960434366L788.0163653319329 387.0274960434366Q798.4814813253407 395.1580861613919 798.4814813253407 411.0972628282748L798.4814813253407 411.0972628282748Q798.4814813253407 423.44073297434556 787.6406945014003 434.4961888443047L787.6406945014003 434.4961888443047Q777.3634139232587 445.0418057299695 759.3312140576943 445.0418057299695L759.3312140576943 445.0418057299695Q738.2131466556123 445.0418057299695 726.5136836475973 423.54806749735485ZM829.6084929980411 446.94699351338477L828.6693159217095 446.94699351338477L828.6693159217095 305.4264249256075L846.5941812642646 296.9469976078719L847.5333583405961 296.9469976078719L847.5333583405961 347.3137225299913Q856.2274547043503 337.4926136746393 868.383089435155 337.4926136746393L868.383089435155 337.4926136746393Q889.5279904679892 337.4926136746393 901.3079543682611 359.3083554762819L901.3079543682611 359.3083554762819Q908.2041974716094 371.83966103761907 908.2041974716094 391.2672097023044L908.2041974716094 391.2672097023044Q908.2041974716094 409.37991046012576 901.4152888912705 423.2528975590793L901.4152888912705 423.2528975590793Q893.2041978810581 440.5337557635785 876.9698512758998 446.94699351338477L876.9698512758998 446.94699351338477L876.0306741995682 446.94699351338477L868.9465956809538 432.88617099916496Q880.3777223814454 428.8342927555634 885.3687777013783 416.5713235017496L885.3687777013783 416.5713235017496Q889.3401550527229 406.7502146463976 889.3401550527229 391.2672097023044L889.3401550527229 391.2672097023044Q889.3401550527229 373.8253497132913 885.3687777013783 365.98992953361153L885.3687777013783 365.98992953361153Q879.0628744745813 353.53912486453146 868.3562558044025 353.53912486453146Q857.6496371342237 353.53912486453146 851.4242347996836 365.98992953361153L851.4242347996836 365.98992953361153Q847.5333583405961 373.8253497132913 847.5333583405961 391.2672097023044L847.5333583405961 391.2672097023044L847.5333583405961 438.44073256489685L829.6084929980411 446.94699351338477ZM990.2882739429804 446.94699351338477L989.3222632358967 446.94699351338477L989.3222632358967 433.71801355248715Q981.2185067486936 444.96130483771253 969.0360383871368 445.0418057299695L969.0360383871368 445.0418057299695Q951.4063429828573 445.0418057299695 941.5852341275054 434.3888543212953Q931.7909589029057 423.7359029126212 931.7909589029057 409.1920750448595L931.7909589029057 409.1920750448595Q931.7909589029057 394.11157456205115 942.4439103115799 383.539124045634L942.4439103115799 383.539124045634Q952.7211908897214 373.3423443597494 969.0360383871368 373.3423443597494L969.0360383871368 373.3423443597494Q980.6550005028947 373.3423443597494 988.9465924053641 383.7269594609003L988.9465924053641 383.7269594609003Q987.2560736679675 369.4783015314142 985.4582204075615 365.98992953361153L985.4582204075615 365.98992953361153Q979.1523171807644 353.53912486453146 968.4725321413379 353.53912486453146L968.4725321413379 353.53912486453146L946.4957885551813 353.53912486453146L946.4957885551813 352.5999477882L953.6603679660528 337.4926136746393L968.4725321413379 337.4926136746393Q989.6174331741722 337.4926136746393 1001.3973970744441 359.3083554762819L1001.3973970744441 359.3083554762819Q1008.1863056547832 371.7591601453621 1008.1863056547832 391.2672097023044L1008.1863056547832 391.2672097023044L1008.1863056547832 438.44073256489685L990.2882739429804 446.94699351338477ZM950.0914950759932 409.00423962959314L950.0914950759932 409.00423962959314Q950.0914950759932 417.51050057808106 955.2167185496878 423.2528975590793Q960.3687756541349 429.0221281708298 969.1433729101461 429.0221281708298L969.1433729101461 429.0221281708298Q977.810635643148 429.0221281708298 983.6603671471555 423.06506214381295L983.6603671471555 423.06506214381295Q989.1344278206303 417.51050057808106 989.1344278206303 409.37991046012576L989.1344278206303 409.37991046012576Q989.1344278206303 400.90048314239016 983.2846963166229 395.1580861613919Q977.4349648126154 389.38885554964145 969.2507074331554 389.38885554964145L969.2507074331554 389.38885554964145Q960.4761101771442 389.38885554964145 955.1898849189356 395.238587053649L955.1898849189356 395.238587053649Q950.0914950759932 401.00781766539944 950.0914950759932 409.00423962959314ZM1036.4957860984891 391.2672097023044L1036.4957860984891 391.2672097023044Q1036.4957860984891 371.6518256223527 1043.2846946788281 359.3083554762819L1043.2846946788281 359.3083554762819Q1055.0914922098523 337.4926136746393 1076.2095596119343 337.4926136746393L1076.2095596119343 337.4926136746393Q1088.4725288657482 337.4926136746393 1097.1666252295026 347.4210570530007L1097.1666252295026 347.4210570530007L1097.1666252295026 305.4264249256075L1115.0914905720574 296.9469976078719L1116.0306676483888 296.9469976078719L1116.0306676483888 391.2672097023044Q1116.0306676483888 410.9094274130084 1109.2417590680502 423.2528975590793L1109.2417590680502 423.2528975590793Q1097.2471261217593 445.0418057299695 1076.2095596119343 445.0418057299695L1076.2095596119343 445.0418057299695Q1055.467163040385 445.0418057299695 1043.2846946788281 423.2528975590793L1043.2846946788281 423.2528975590793Q1036.4957860984891 411.0972628282748 1036.4957860984891 391.2672097023044ZM1055.3598285173757 391.2672097023044L1055.3598285173757 391.2672097023044Q1055.3598285173757 409.00423962959314 1059.223871345711 416.5713235017496L1059.223871345711 416.5713235017496Q1065.6371090955172 429.0221281708298 1076.2095596119343 429.0221281708298L1076.2095596119343 429.0221281708298Q1086.8893446513607 429.0221281708298 1093.1952478781582 416.5713235017496L1093.1952478781582 416.5713235017496Q1097.1666252295026 408.73590332206993 1097.1666252295026 391.2672097023044Q1097.1666252295026 373.8253497132913 1093.1952478781582 365.98992953361153L1093.1952478781582 365.98992953361153Q1086.9698455436178 353.64645938754074 1076.2095596119343 353.64645938754074Q1065.4492736802508 353.64645938754074 1059.223871345711 366.1777649488779L1059.223871345711 366.1777649488779Q1055.3598285173757 374.01318512855755 1055.3598285173757 391.2672097023044ZM1225.753383794658 335.61425952197635L1226.6925608709894 335.61425952197635L1226.6925608709894 391.2672097023044Q1226.6925608709894 410.9094274130084 1219.9841531829074 423.2528975590793L1219.9841531829074 423.2528975590793Q1208.0968547596262 445.0418057299695 1186.9787873575438 445.0418057299695Q1165.8338863247095 445.0418057299695 1153.9465879014283 423.2528975590793L1153.9465879014283 423.2528975590793Q1147.1576793210893 410.72159199774217 1147.1576793210893 391.2672097023044L1147.1576793210893 391.2672097023044Q1147.1576793210893 373.15450894448304 1153.9465879014283 359.3083554762819L1153.9465879014283 359.3083554762819Q1162.1576789116407 342.02749727178275 1178.392025516799 335.61425952197635L1178.392025516799 335.61425952197635L1179.3312025931305 335.61425952197635L1186.388447480993 349.67508203619616Q1174.9841544112533 353.7269602797977 1169.9930990913203 365.98992953361153L1169.9930990913203 365.98992953361153Q1166.0217217399759 375.81103838896354 1166.0217217399759 391.2672097023044L1166.0217217399759 391.2672097023044Q1166.0217217399759 408.73590332206993 1169.9930990913203 416.5713235017496L1169.9930990913203 416.5713235017496Q1176.2185014258603 429.0221281708298 1186.9787873575438 429.0221281708298Q1197.712239658475 429.0221281708298 1203.937641993015 416.5713235017496L1203.937641993015 416.5713235017496Q1207.8285184521028 408.73590332206993 1207.8285184521028 391.2672097023044L1207.8285184521028 391.2672097023044L1207.8285184521028 344.1205204704644L1225.753383794658 335.61425952197635ZM1263.4814686324307 446.94699351338477L1262.5422915560994 446.94699351338477L1262.5422915560994 305.4264249256075L1280.4671568986541 296.9469976078719L1281.406333974986 296.9469976078719L1281.406333974986 438.44073256489685L1263.4814686324307 446.94699351338477Z " fill="#161b21" transform="matrix(0.6828434397842477,0,0,0.6828434397842477,0,46.01844855544313)"/></g></svg>